<svg width="9" height="8" viewBox="0 0 9 8" fill="none" xmlns="http://www.w3.org/2000/svg">
<path d="M0 3.8999C0 3.5999 0.2 3.3999 0.5 3.3999H5.4C5.7 3.3999 5.9 3.5999 5.9 3.8999C5.9 4.1999 5.7 4.3999 5.4 4.3999H0.5C0.2 4.3999 0 4.0999 0 3.8999Z" fill="#1AFFDE"/>
<path d="M4.4001 0.900099C4.4001 0.800099 4.4001 0.600098 4.5001 0.500098C4.7001 0.300098 5.00009 0.300098 5.20009 0.500098L8.5001 3.8001L5.20009 7.1001C5.00009 7.3001 4.7001 7.3001 4.5001 7.1001C4.3001 6.9001 4.3001 6.6001 4.5001 6.4001L7.1001 3.8001L4.5001 1.20009C4.5001 1.20009 4.4001 1.0001 4.4001 0.900099Z" fill="#1AFFDE"/>
</svg>
