<svg width="12" height="11" viewBox="0 0 12 11" fill="none" xmlns="http://www.w3.org/2000/svg">
<path d="M3.5 8.70029C3.2 8.70029 3 8.50029 3 8.20029V3.30029C3 3.00029 3.2 2.80029 3.5 2.80029C3.8 2.80029 4 3.00029 4 3.30029V8.20029C4 8.50029 3.8 8.70029 3.5 8.70029Z" fill="#1AFFDE"/>
<path d="M0.600012 4.3002C0.500012 4.3002 0.300049 4.3002 0.200049 4.2002C4.88311e-05 4.0002 4.88311e-05 3.7002 0.200049 3.5002L3.50004 0.200195L6.80002 3.5002C7.00002 3.7002 7.00002 4.0002 6.80002 4.2002C6.60002 4.4002 6.30001 4.4002 6.10001 4.2002L3.50004 1.6002L0.900061 4.2002C0.800061 4.2002 0.700012 4.3002 0.600012 4.3002Z" fill="#1AFFDE"/>
<path d="M8.5 7.9C8.2 7.9 8 7.7 8 7.4V2.5C8 2.2 8.2 2 8.5 2C8.8 2 9 2.2 9 2.5V7.4C9 7.7 8.7 7.9 8.5 7.9Z" fill="#1AFFDE"/>
<path d="M8.4 10.6002L5.09995 7.3002C4.89995 7.1002 4.89995 6.8002 5.09995 6.6002C5.29995 6.4002 5.59996 6.4002 5.79996 6.6002L8.4 9.20019L11 6.6002C11.2 6.4002 11.5 6.4002 11.7 6.6002C11.9 6.8002 11.9 7.1002 11.7 7.3002L8.4 10.6002Z" fill="#1AFFDE"/>
</svg>
