<svg width="12" height="12" viewBox="0 0 12 12" fill="none" xmlns="http://www.w3.org/2000/svg">
<path d="M5.69995 3.1001H9.99994C10.7999 3.1001 11.4 3.7001 11.4 4.5001V10.6001C11.4 11.4001 10.7999 12.0001 9.99994 12.0001H5.69995C4.89995 12.0001 4.29993 11.4001 4.29993 10.6001V4.5001C4.29993 3.8001 4.89995 3.1001 5.69995 3.1001Z" fill="#1AFFDE"/>
<path d="M5.69995 2.1001H7.89996V2.0001C7.89996 1.2001 7.29994 0.600098 6.49994 0.600098H2.19995C1.39995 0.600098 0.799927 1.2001 0.799927 2.0001V8.1001C0.799927 8.9001 1.39995 9.5001 2.19995 9.5001H3.39996V4.5001C3.29996 3.2001 4.39995 2.1001 5.69995 2.1001Z" fill="#1AFFDE"/>
</svg>
