<svg width="16" height="16" viewBox="0 0 16 16" fill="none" xmlns="http://www.w3.org/2000/svg">
<path d="M13.2999 15.6001H2.0999C1.1999 15.6001 0.399902 14.8001 0.399902 13.9001V2.80009C0.399902 1.90009 1.1999 1.1001 2.0999 1.1001H13.1999C14.0999 1.1001 14.8999 1.90009 14.8999 2.80009V13.9001C14.9999 14.8001 14.1999 15.6001 13.2999 15.6001Z" fill="url(#paint0_linear_453_792)"/>
<path d="M13.2999 15.6001H2.0999C1.1999 15.6001 0.399902 14.8001 0.399902 13.9001V2.80009C0.399902 1.90009 1.1999 1.1001 2.0999 1.1001H13.1999C14.0999 1.1001 14.8999 1.90009 14.8999 2.80009V13.9001C14.9999 14.8001 14.1999 15.6001 13.2999 15.6001Z" stroke="#593468" stroke-width="0.25" stroke-miterlimit="10"/>
<path d="M12.5999 14.9002H2.79985C1.89985 14.9002 1.09985 14.1002 1.09985 13.2002V3.40019C1.09985 2.50019 1.89985 1.7002 2.79985 1.7002H12.5999C13.4999 1.7002 14.2999 2.50019 14.2999 3.40019V13.2002C14.2999 14.1002 13.4999 14.9002 12.5999 14.9002Z" fill="url(#paint1_linear_453_792)"/>
<defs>
<linearGradient id="paint0_linear_453_792" x1="0.418902" y1="8.2957" x2="14.9736" y2="8.2957" gradientUnits="userSpaceOnUse">
<stop stop-color="#9F4AFF" stop-opacity="0"/>
<stop offset="0.5" stop-color="#A99DFF" stop-opacity="0.2"/>
<stop offset="1" stop-color="#9F4AFF" stop-opacity="0"/>
</linearGradient>
<linearGradient id="paint1_linear_453_792" x1="1.57915" y1="14.4128" x2="13.8132" y2="2.17879" gradientUnits="userSpaceOnUse">
<stop stop-color="#9F4AFF" stop-opacity="0"/>
<stop offset="0.5" stop-color="#A99DFF" stop-opacity="0.2"/>
<stop offset="1" stop-color="#9F4AFF" stop-opacity="0"/>
</linearGradient>
</defs>
</svg>
